<svg width="18" height="18" viewBox="0 0 18 18" fill="none" xmlns="http://www.w3.org/2000/svg">
<path fill-rule="evenodd" clip-rule="evenodd" d="M2 0C0.895431 0 0 0.89543 0 2V16C0 17.1046 0.89543 18 2 18H16C17.1046 18 18 17.1046 18 16V2C18 0.895431 17.1046 0 16 0H2ZM14.8006 6.73829C15.1911 6.34777 15.1911 5.7146 14.8006 5.32408C14.41 4.93356 13.7769 4.93356 13.3863 5.32408L8.03107 10.6794L5.70698 8.35527C5.31646 7.96475 4.6833 7.96474 4.29277 8.35527C3.90225 8.74579 3.90225 9.37896 4.29277 9.76948L7.32396 12.8007C7.71448 13.1912 8.34765 13.1912 8.73817 12.8007L14.8006 6.73829Z" fill="#061B36"/>
</svg>
