<?xml version="1.0" standalone="no"?>
<!DOCTYPE svg PUBLIC "-//W3C//DTD SVG 20010904//EN"
 "http://www.w3.org/TR/2001/REC-SVG-20010904/DTD/svg10.dtd">
<svg version="1.0" xmlns="http://www.w3.org/2000/svg"
 width="700.000000pt" height="700.000000pt" viewBox="0 0 700.000000 700.000000"
 preserveAspectRatio="xMidYMid meet">
<metadata>
Created by potrace 1.11, written by Peter Selinger 2001-2013
</metadata>
<g transform="translate(0.000000,700.000000) scale(0.100000,-0.100000)"
fill="#000000" stroke="none">
<path d="M695 6983 c-266 -57 -495 -252 -590 -503 -55 -148 -53 -41 -51 -2378
l2 -2157 22 -75 c43 -151 111 -270 213 -370 107 -105 225 -173 370 -211 83
-22 92 -23 769 -23 l685 -1 3 53 3 52 95 0 c94 0 95 0 88 -22 -13 -41 -12
-185 1 -255 45 -235 215 -438 435 -519 142 -52 320 -56 455 -10 44 15 91 34
104 43 13 8 27 11 31 6 5 -4 52 -125 105 -268 54 -143 104 -273 112 -288 14
-29 65 -57 101 -57 11 0 53 13 93 29 68 27 291 111 479 181 41 15 190 71 331
124 140 53 260 96 265 96 5 0 22 -23 38 -52 56 -100 191 -212 308 -257 26 -10
27 -9 43 44 l16 55 260 0 c233 0 264 -2 297 -19 88 -44 201 -74 320 -85 46 -4
42 -10 46 69 l1 30 287 3 288 2 -1 -42 c-2 -79 -11 -74 114 -73 l112 1 1 769
c2 853 2 844 -62 974 -55 111 -131 180 -412 371 -301 205 -455 311 -507 348
-22 16 -83 58 -135 94 l-96 66 -84 224 c-46 122 -93 250 -105 283 -197 541
-207 561 -295 552 -25 -2 -81 -21 -125 -42 -44 -20 -100 -45 -125 -55 -25 -10
-80 -34 -123 -54 l-77 -36 19 38 c35 70 58 158 60 228 1 31 1 31 56 30 l55 -1
0 60 0 60 359 -2 c357 -2 360 -1 393 20 18 13 38 33 44 46 14 27 13 2209 0
2271 -63 296 -281 530 -578 622 l-73 23 -2185 2 c-1911 1 -2194 0 -2255 -14z
m2921 -2973 c7 0 9 -15 4 -45 -22 -144 24 -319 123 -465 82 -122 255 -241 398
-274 25 -5 27 -3 33 32 13 71 6 68 119 67 l103 0 28 -65 c16 -36 40 -96 54
-135 73 -204 -15 -439 -206 -551 -92 -54 -236 -72 -345 -43 -103 27 -221 115
-273 205 -38 65 -63 150 -65 222 -1 37 -8 81 -16 99 -15 31 -64 63 -100 63
-19 0 -104 -30 -288 -100 -60 -23 -126 -47 -145 -54 -96 -35 -361 -137 -402
-155 -49 -21 -78 -59 -78 -104 0 -19 45 -146 176 -492 8 -22 20 -56 26 -75 5
-19 15 -41 20 -48 18 -22 -1 -27 -95 -26 -103 0 -217 27 -217 51 0 7 9 32 20
54 12 22 18 44 15 49 -4 6 -24 19 -46 31 -56 28 -140 118 -172 183 -116 237
-23 512 213 624 108 51 235 55 365 12 57 -19 66 -20 97 -7 18 8 42 24 53 37
19 21 20 38 23 469 l3 446 282 -2 c155 -1 287 -2 293 -3z"/>
</g>
</svg>
